<svg width="59" height="59" viewBox="0 0 59 59" fill="none" xmlns="http://www.w3.org/2000/svg">
<rect x="59" y="59" width="59" height="59" rx="5" transform="rotate(180 59 59)" fill="#1B2133"/>
<g clip-path="url(#clip0_104_17)">
<path d="M39.1816 20.4467C37.9365 19.0963 36.2281 18.3525 34.3706 18.3525C32.9822 18.3525 31.7107 18.7915 30.5913 19.6571C30.0265 20.094 29.5147 20.6286 29.0634 21.2525C28.6124 20.6288 28.1004 20.094 27.5353 19.6571C26.4161 18.7915 25.1446 18.3525 23.7562 18.3525C21.8988 18.3525 20.1901 19.0963 18.945 20.4467C17.7148 21.7814 17.0371 23.6047 17.0371 25.5811C17.0371 27.6152 17.7952 29.4773 19.4227 31.4412C20.8786 33.1979 22.9712 34.9812 25.3944 37.0462C26.2218 37.7514 27.1597 38.5508 28.1336 39.4022C28.3909 39.6276 28.721 39.7516 29.0634 39.7516C29.4057 39.7516 29.736 39.6276 29.9929 39.4026C30.9667 38.5509 31.9052 37.7512 32.733 37.0456C35.1558 34.981 37.2484 33.1979 38.7043 31.441C40.3318 29.4773 41.0897 27.6152 41.0897 25.5809C41.0897 23.6047 40.412 21.7814 39.1816 20.4467Z" fill="white"/>
</g>
<defs>
<clipPath id="clip0_104_17">
<rect width="24.0526" height="24.0526" fill="white" transform="translate(17.0371 17.0371)"/>
</clipPath>
</defs>
</svg>
