<svg width="59" height="59" viewBox="0 0 59 59" fill="none" xmlns="http://www.w3.org/2000/svg">
<rect x="58.8711" y="58.8711" width="58.871" height="58.871" rx="10" transform="rotate(180 58.8711 58.8711)" fill="#1B2133"/>
<g clip-path="url(#clip0_1_1043)">
<path d="M22.239 24.2622H19.1861C18.7646 24.2622 18.4229 24.6039 18.4229 25.0254V37.2369C18.4229 37.6584 18.7646 38.0001 19.1861 38.0001H22.239C22.6604 38.0001 23.0022 37.6584 23.0022 37.2369V25.0254C23.0022 24.6039 22.6605 24.2622 22.239 24.2622Z" fill="white"/>
<path d="M41.3039 26.2852C41.1693 25.1012 40.0633 24.2621 38.8718 24.2621H32.9215C33.4272 23.3566 33.6986 20.7956 33.6865 19.7494C33.6666 18.0176 32.2325 16.6299 30.5007 16.6299H29.8709C29.4491 16.6299 29.1077 16.9712 29.1077 17.3931C29.1077 19.158 28.4204 22.3436 27.1244 23.6398C26.252 24.5121 25.5062 24.8282 24.5283 25.317V36.769C26.0255 37.2681 27.9264 38.0001 30.8239 38.0001H35.8165C37.4615 38.0001 38.7427 36.4765 38.1053 34.8667C39.0765 34.6021 39.7927 33.7114 39.7927 32.6575C39.7927 32.3601 39.7353 32.0754 39.6317 31.8138C41.2683 31.3679 41.8707 29.3471 40.7348 28.0782C41.1521 27.612 41.3823 26.9743 41.3039 26.2852Z" fill="white"/>
</g>
<defs>
<clipPath id="clip0_1_1043">
<rect width="26" height="26" fill="white" transform="translate(16.8711 12)"/>
</clipPath>
</defs>
</svg>
